<?xml version="1.0" ?><svg height="467.38101" id="svg22" version="1.1" viewBox="0 0 467.72198 467.38101" width="467.72198" xml:space="preserve" xmlns="http://www.w3.org/2000/svg" xmlns:cc="http://creativecommons.org/ns#" xmlns:dc="http://purl.org/dc/elements/1.1/" xmlns:inkscape="http://www.inkscape.org/namespaces/inkscape" xmlns:rdf="http://www.w3.org/1999/02/22-rdf-syntax-ns#" xmlns:sodipodi="http://sodipodi.sourceforge.net/DTD/sodipodi-0.dtd" xmlns:svg="http://www.w3.org/2000/svg"><defs id="defs26"/><g id="Lcd_With_Coding_icons" transform="translate(-22.139,-22.31)"><g id="g18"><path d="m 256.168,22.31 c 128.777,0 233.693,104.567 233.693,233.686 0,129.123 -104.916,233.695 -233.693,233.695 C 127.043,489.691 22.139,385.119 22.139,255.996 22.139,126.877 127.043,22.31 256.168,22.31 Z" id="path4" style="clip-rule:evenodd;fill:#84dbff;fill-rule:evenodd"/><path d="m 485.485,210.95 c 2.696,14.449 4.376,29.58 4.376,45.045 0,122.061 -93.479,221.929 -212.514,232.684 L 110.239,328.287 c 0,-66.904 3.353,-130.125 3.353,-197.034 l 287.84,-3.369 c 2.347,4.376 83.381,83.066 84.053,83.066 z" id="path6" style="clip-rule:evenodd;fill:#6bb1cf;fill-rule:evenodd"/><rect height="40.011002" id="rect8" style="clip-rule:evenodd;fill:#202d3b;fill-rule:evenodd" width="71.617996" x="220.188" y="326.27802"/><rect height="201.08099" id="rect10" style="clip-rule:evenodd;fill:#2c3e51;fill-rule:evenodd" width="291.526" x="110.239" y="127.884"/><rect height="160.726" id="rect12" style="clip-rule:evenodd;fill:#ffffff;fill-rule:evenodd" width="251.181" x="130.41" y="148.063"/><path d="m 174.46,233.807 v -9.753 l 57.835,-24.545 v 10.76 l -45.73,18.834 45.73,18.83 v 10.755 z m 64.557,39.681 25.553,-90.124 h 8.417 l -25.223,90.124 z m 98.521,-39.681 -57.833,24.88 v -10.755 l 45.732,-18.83 -45.732,-18.834 v -10.76 l 57.833,24.545 z" id="path14" style="fill:#4b4b55"/><path d="M 313.66,379.063 H 198.333 c -4.374,0 -7.728,-3.359 -7.728,-7.391 v 0 c 0,-4.371 3.354,-7.735 7.728,-7.735 H 313.66 c 4.376,0 7.74,3.364 7.74,7.735 v 0 c 0,4.031 -3.364,7.391 -7.74,7.391 z" id="path16" style="clip-rule:evenodd;fill:#2c3e51;fill-rule:evenodd"/></g></g><g id="Layer_1" transform="translate(-22.139,-22.31)"/></svg>